<mxfile host="app.diagrams.net" modified="2021-09-17T08:24:47.534Z" agent="5.0 (Windows NT 10.0; Win64; x64) AppleWebKit/537.36 (KHTML, like Gecko) Chrome/93.0.4577.82 Safari/537.36" etag="dGHKl-fPyT6hgHlzn2g0" version="15.2.9" type="github">
  <diagram id="R2lEEEUBdFMjLlhIrx00" name="Page-1">
    <mxGraphModel dx="868" dy="490" grid="1" gridSize="10" guides="1" tooltips="1" connect="1" arrows="1" fold="1" page="1" pageScale="1" pageWidth="850" pageHeight="1100" math="0" shadow="0" extFonts="Permanent Marker^https://fonts.googleapis.com/css?family=Permanent+Marker">
      <root>
        <mxCell id="0" />
        <mxCell id="1" parent="0" />
        <mxCell id="KVk4hBD7cU9KSUQBLwWF-1" value="TEACHER" style="swimlane;fontStyle=0;childLayout=stackLayout;horizontal=1;startSize=26;horizontalStack=0;resizeParent=1;resizeParentMax=0;resizeLast=0;collapsible=1;marginBottom=0;rounded=1;" parent="1" vertex="1">
          <mxGeometry x="136" y="120" width="140" height="182" as="geometry" />
        </mxCell>
        <mxCell id="KVk4hBD7cU9KSUQBLwWF-2" value="# TeacherID" style="text;strokeColor=none;fillColor=none;align=left;verticalAlign=middle;spacingLeft=4;spacingRight=4;overflow=hidden;rotatable=0;points=[[0,0.5],[1,0.5]];portConstraint=eastwest;" parent="KVk4hBD7cU9KSUQBLwWF-1" vertex="1">
          <mxGeometry y="26" width="140" height="26" as="geometry" />
        </mxCell>
        <mxCell id="KVk4hBD7cU9KSUQBLwWF-3" value="* FirstName" style="text;strokeColor=none;fillColor=none;align=left;verticalAlign=middle;spacingLeft=4;spacingRight=4;overflow=hidden;rotatable=0;points=[[0,0.5],[1,0.5]];portConstraint=eastwest;" parent="KVk4hBD7cU9KSUQBLwWF-1" vertex="1">
          <mxGeometry y="52" width="140" height="26" as="geometry" />
        </mxCell>
        <mxCell id="KVk4hBD7cU9KSUQBLwWF-4" value="* LastName" style="text;strokeColor=none;fillColor=none;align=left;verticalAlign=middle;spacingLeft=4;spacingRight=4;overflow=hidden;rotatable=0;points=[[0,0.5],[1,0.5]];portConstraint=eastwest;" parent="KVk4hBD7cU9KSUQBLwWF-1" vertex="1">
          <mxGeometry y="78" width="140" height="26" as="geometry" />
        </mxCell>
        <mxCell id="KVk4hBD7cU9KSUQBLwWF-5" value="* Address" style="text;strokeColor=none;fillColor=none;align=left;verticalAlign=middle;spacingLeft=4;spacingRight=4;overflow=hidden;rotatable=0;points=[[0,0.5],[1,0.5]];portConstraint=eastwest;" parent="KVk4hBD7cU9KSUQBLwWF-1" vertex="1">
          <mxGeometry y="104" width="140" height="26" as="geometry" />
        </mxCell>
        <mxCell id="KVk4hBD7cU9KSUQBLwWF-6" value="* PhoneNumber" style="text;strokeColor=none;fillColor=none;align=left;verticalAlign=middle;spacingLeft=4;spacingRight=4;overflow=hidden;rotatable=0;points=[[0,0.5],[1,0.5]];portConstraint=eastwest;" parent="KVk4hBD7cU9KSUQBLwWF-1" vertex="1">
          <mxGeometry y="130" width="140" height="26" as="geometry" />
        </mxCell>
        <mxCell id="KVk4hBD7cU9KSUQBLwWF-7" value="* EmailAddress" style="text;strokeColor=none;fillColor=none;align=left;verticalAlign=middle;spacingLeft=4;spacingRight=4;overflow=hidden;rotatable=0;points=[[0,0.5],[1,0.5]];portConstraint=eastwest;" parent="KVk4hBD7cU9KSUQBLwWF-1" vertex="1">
          <mxGeometry y="156" width="140" height="26" as="geometry" />
        </mxCell>
        <mxCell id="KVk4hBD7cU9KSUQBLwWF-9" value="CLASS" style="swimlane;fontStyle=0;childLayout=stackLayout;horizontal=1;startSize=26;horizontalStack=0;resizeParent=1;resizeParentMax=0;resizeLast=0;collapsible=1;marginBottom=0;rounded=1;verticalAlign=middle;html=1;" parent="1" vertex="1">
          <mxGeometry x="480" y="120" width="140" height="156" as="geometry" />
        </mxCell>
        <mxCell id="KVk4hBD7cU9KSUQBLwWF-10" value="# ClassID" style="text;strokeColor=none;fillColor=none;align=left;verticalAlign=top;spacingLeft=4;spacingRight=4;overflow=hidden;rotatable=0;points=[[0,0.5],[1,0.5]];portConstraint=eastwest;" parent="KVk4hBD7cU9KSUQBLwWF-9" vertex="1">
          <mxGeometry y="26" width="140" height="26" as="geometry" />
        </mxCell>
        <mxCell id="KVk4hBD7cU9KSUQBLwWF-11" value="* ClassName" style="text;strokeColor=none;fillColor=none;align=left;verticalAlign=top;spacingLeft=4;spacingRight=4;overflow=hidden;rotatable=0;points=[[0,0.5],[1,0.5]];portConstraint=eastwest;" parent="KVk4hBD7cU9KSUQBLwWF-9" vertex="1">
          <mxGeometry y="52" width="140" height="26" as="geometry" />
        </mxCell>
        <mxCell id="KVk4hBD7cU9KSUQBLwWF-17" value="* ClassDay" style="text;strokeColor=none;fillColor=none;align=left;verticalAlign=top;spacingLeft=4;spacingRight=4;overflow=hidden;rotatable=0;points=[[0,0.5],[1,0.5]];portConstraint=eastwest;" parent="KVk4hBD7cU9KSUQBLwWF-9" vertex="1">
          <mxGeometry y="78" width="140" height="26" as="geometry" />
        </mxCell>
        <mxCell id="KVk4hBD7cU9KSUQBLwWF-22" value="* ClassTime" style="text;strokeColor=none;fillColor=none;align=left;verticalAlign=top;spacingLeft=4;spacingRight=4;overflow=hidden;rotatable=0;points=[[0,0.5],[1,0.5]];portConstraint=eastwest;" parent="KVk4hBD7cU9KSUQBLwWF-9" vertex="1">
          <mxGeometry y="104" width="140" height="26" as="geometry" />
        </mxCell>
        <mxCell id="aajGcDaXCNT4DOjiABnj-1" value="* ClassRoom" style="text;strokeColor=none;fillColor=none;align=left;verticalAlign=top;spacingLeft=4;spacingRight=4;overflow=hidden;rotatable=0;points=[[0,0.5],[1,0.5]];portConstraint=eastwest;" vertex="1" parent="KVk4hBD7cU9KSUQBLwWF-9">
          <mxGeometry y="130" width="140" height="26" as="geometry" />
        </mxCell>
        <mxCell id="KVk4hBD7cU9KSUQBLwWF-15" value="assigned to" style="html=1;verticalAlign=bottom;endArrow=ERmany;fontSize=10;sourcePerimeterSpacing=1;targetPerimeterSpacing=3;strokeWidth=2;endFill=0;" parent="1" edge="1">
          <mxGeometry x="0.25" y="-21" width="80" relative="1" as="geometry">
            <mxPoint x="390" y="218" as="sourcePoint" />
            <mxPoint x="480" y="217.5" as="targetPoint" />
            <mxPoint y="1" as="offset" />
          </mxGeometry>
        </mxCell>
        <mxCell id="KVk4hBD7cU9KSUQBLwWF-16" value="assign" style="html=1;verticalAlign=bottom;endArrow=none;dashed=1;endSize=8;fontSize=10;sourcePerimeterSpacing=1;targetPerimeterSpacing=3;strokeWidth=2;entryX=0.993;entryY=0.769;entryDx=0;entryDy=0;entryPerimeter=0;endFill=0;startArrow=none;startFill=0;" parent="1" edge="1">
          <mxGeometry x="0.5829" y="-8" relative="1" as="geometry">
            <mxPoint x="391" y="218" as="sourcePoint" />
            <mxPoint x="276.02" y="217.99400000000003" as="targetPoint" />
            <mxPoint as="offset" />
          </mxGeometry>
        </mxCell>
        <mxCell id="KVk4hBD7cU9KSUQBLwWF-18" value="COURSE" style="swimlane;fontStyle=0;childLayout=stackLayout;horizontal=1;startSize=26;horizontalStack=0;resizeParent=1;resizeParentMax=0;resizeLast=0;collapsible=1;marginBottom=0;rounded=1;verticalAlign=middle;html=1;" parent="1" vertex="1">
          <mxGeometry x="320" y="352" width="140" height="78" as="geometry" />
        </mxCell>
        <mxCell id="KVk4hBD7cU9KSUQBLwWF-19" value="# CourseCode" style="text;strokeColor=none;fillColor=none;align=left;verticalAlign=top;spacingLeft=4;spacingRight=4;overflow=hidden;rotatable=0;points=[[0,0.5],[1,0.5]];portConstraint=eastwest;" parent="KVk4hBD7cU9KSUQBLwWF-18" vertex="1">
          <mxGeometry y="26" width="140" height="26" as="geometry" />
        </mxCell>
        <mxCell id="KVk4hBD7cU9KSUQBLwWF-20" value="* Description" style="text;strokeColor=none;fillColor=none;align=left;verticalAlign=top;spacingLeft=4;spacingRight=4;overflow=hidden;rotatable=0;points=[[0,0.5],[1,0.5]];portConstraint=eastwest;" parent="KVk4hBD7cU9KSUQBLwWF-18" vertex="1">
          <mxGeometry y="52" width="140" height="26" as="geometry" />
        </mxCell>
        <mxCell id="KVk4hBD7cU9KSUQBLwWF-24" value="have" style="html=1;verticalAlign=bottom;endArrow=ERmany;fontSize=10;sourcePerimeterSpacing=1;targetPerimeterSpacing=3;strokeWidth=2;endFill=0;entryX=0.429;entryY=1.038;entryDx=0;entryDy=0;entryPerimeter=0;" parent="1" edge="1" target="aajGcDaXCNT4DOjiABnj-1">
          <mxGeometry x="0.5873" y="-20" width="80" relative="1" as="geometry">
            <mxPoint x="540" y="400" as="sourcePoint" />
            <mxPoint x="540" y="290" as="targetPoint" />
            <mxPoint as="offset" />
          </mxGeometry>
        </mxCell>
        <mxCell id="KVk4hBD7cU9KSUQBLwWF-25" value="taught" style="html=1;verticalAlign=bottom;endArrow=none;dashed=1;endSize=8;fontSize=10;sourcePerimeterSpacing=1;targetPerimeterSpacing=3;strokeWidth=2;entryX=0.993;entryY=0.769;entryDx=0;entryDy=0;entryPerimeter=0;endFill=0;startArrow=none;startFill=0;" parent="1" edge="1">
          <mxGeometry x="0.25" y="-10" relative="1" as="geometry">
            <mxPoint x="540" y="400" as="sourcePoint" />
            <mxPoint x="460" y="400.004" as="targetPoint" />
            <mxPoint as="offset" />
          </mxGeometry>
        </mxCell>
        <mxCell id="KVk4hBD7cU9KSUQBLwWF-26" value="taught by" style="html=1;verticalAlign=bottom;endArrow=ERmany;fontSize=10;sourcePerimeterSpacing=1;targetPerimeterSpacing=3;strokeWidth=2;endFill=0;" parent="1" edge="1">
          <mxGeometry x="0.25" y="-21" width="80" relative="1" as="geometry">
            <mxPoint x="190" y="400" as="sourcePoint" />
            <mxPoint x="320" y="400" as="targetPoint" />
            <mxPoint y="1" as="offset" />
          </mxGeometry>
        </mxCell>
        <mxCell id="KVk4hBD7cU9KSUQBLwWF-27" value="teach" style="html=1;verticalAlign=bottom;endArrow=none;fontSize=10;sourcePerimeterSpacing=1;targetPerimeterSpacing=3;strokeWidth=2;endFill=0;dashed=1;" parent="1" edge="1">
          <mxGeometry x="0.6122" y="-20" width="80" relative="1" as="geometry">
            <mxPoint x="190" y="399" as="sourcePoint" />
            <mxPoint x="190" y="301" as="targetPoint" />
            <mxPoint as="offset" />
          </mxGeometry>
        </mxCell>
      </root>
    </mxGraphModel>
  </diagram>
</mxfile>
